<svg width="971" height="301" viewBox="0 0 971 301" fill="none" xmlns="http://www.w3.org/2000/svg">
<path d="M263.724 0H37.6762C16.8682 0 0 16.8458 0 37.6262V263.374C0 284.154 16.8682 301 37.6762 301H263.724C284.532 301 301.4 284.154 301.4 263.374V37.6262C301.4 16.8458 284.532 0 263.724 0Z" fill="#FCDC00"/>
<path d="M116.514 184.557C111.774 179.824 108.072 174.158 105.643 167.919C103.214 161.68 102.11 155.005 102.402 148.318C102.695 141.63 104.376 135.076 107.341 129.073C110.305 123.069 114.487 117.747 119.622 113.444C128.768 106.324 140.09 102.566 151.684 102.803C163.279 103.039 174.438 107.255 183.285 114.742C188.398 118.565 192.5 123.577 195.235 129.342C197.969 135.107 199.254 141.452 198.977 147.825C198.867 150.695 199.352 153.558 200.402 156.232C201.452 158.906 203.045 161.335 205.081 163.364C207.953 166.236 211.6 168.21 215.577 169.046C219.553 169.882 223.688 169.544 227.475 168.073C231.263 166.601 234.539 164.061 236.905 160.761C239.271 157.461 240.624 153.545 240.798 149.49C241.279 137.322 239.001 125.202 234.134 114.037C229.267 102.871 221.937 92.9477 212.691 85.0079C204.204 76.7611 194.173 70.2647 183.171 65.8895C172.169 61.5143 160.412 59.346 148.571 59.5085C136.73 59.671 125.037 62.161 114.16 66.8364C103.283 71.5118 93.4341 78.281 85.1764 86.7575C76.9187 95.234 70.4136 105.252 66.0326 116.239C61.6516 127.226 59.4805 138.968 59.6432 150.793C59.8058 162.618 62.2992 174.295 66.9808 185.158C71.6624 196.021 78.4406 205.857 86.9284 214.103C95.1085 222.819 105.066 229.68 116.128 234.223C127.19 238.767 139.1 240.888 151.053 240.442C155.145 240.316 159.11 238.997 162.459 236.645C165.807 234.294 168.393 231.015 169.896 227.212C171.399 223.41 171.754 219.251 170.916 215.249C170.078 211.248 168.084 207.579 165.182 204.697C163.179 202.685 160.784 201.105 158.144 200.057C155.505 199.008 152.677 198.513 149.838 198.601C143.584 198.906 137.342 197.802 131.574 195.371C125.805 192.94 120.658 189.244 116.514 184.557Z" fill="black"/>
<path d="M218.795 240.439C230.13 240.439 239.319 231.262 239.319 219.942C239.319 208.622 230.13 199.445 218.795 199.445C207.46 199.445 198.271 208.622 198.271 219.942C198.271 231.262 207.46 240.439 218.795 240.439Z" fill="black"/>
<path d="M150.695 170.994C162.031 170.994 171.219 161.817 171.219 150.497C171.219 139.177 162.031 130 150.695 130C139.36 130 130.171 139.177 130.171 150.497C130.171 161.817 139.36 170.994 150.695 170.994Z" fill="black"/>
<path d="M402.306 169.957C391.445 170.246 380.689 167.766 371.054 162.752C362.403 158.099 355.378 150.922 350.916 142.18C346.251 132.243 343.86 121.394 343.917 110.419C343.974 99.4446 346.478 88.6204 351.246 78.7326C355.968 69.7616 363.218 62.368 372.099 57.4644C381.796 52.2757 392.674 49.6832 403.672 49.9391C411.731 49.9177 419.739 51.2109 427.38 53.7676C434.363 55.9774 440.789 59.6637 446.218 64.5757L437.986 84.6869C433.326 80.867 428.078 77.8269 422.444 75.6849C417.183 73.6748 411.603 72.6296 405.97 72.5995C401.527 72.3821 397.09 73.125 392.961 74.7777C388.832 76.4303 385.109 78.9537 382.046 82.1754C375.647 90.0995 372.536 100.173 373.352 110.32C372.651 120.379 375.761 130.333 382.065 138.21C385.17 141.47 388.949 144.015 393.14 145.669C397.33 147.322 401.83 148.045 406.328 147.786C411.887 147.751 417.393 146.705 422.576 144.701C428.266 142.538 433.537 139.407 438.155 135.445L446.387 155.556C440.787 160.454 434.19 164.08 427.05 166.185C419.061 168.717 410.725 169.987 402.344 169.948L402.306 169.957Z" fill="black"/>
<path d="M465.263 168.415V0.113281H493.888V76.3063L490.45 76.532C493.673 68.3842 499.401 61.4678 506.811 56.7783C514.349 52.1987 523.033 49.847 531.856 49.9962C559.328 49.9962 573.064 65.8525 573.064 97.5651V168.443H544.459V98.6562C545.015 91.663 543.153 84.6907 539.184 78.9025C537.137 76.6798 534.604 74.9571 531.784 73.8675C528.963 72.778 525.929 72.3507 522.917 72.6189C519.009 72.4294 515.106 73.0748 511.467 74.512C507.829 75.9492 504.539 78.1451 501.819 80.9531C496.425 87.0112 493.592 94.921 493.916 103.021V168.425L465.263 168.415Z" fill="black"/>
<path d="M648.191 170.004C638.737 170.191 629.424 167.692 621.337 162.799C613.485 157.859 607.282 150.698 603.516 142.227C599.084 132.349 596.902 121.612 597.13 110.79C596.87 99.817 599.052 88.9228 603.516 78.8927C607.406 70.2756 613.622 62.9109 621.469 57.6245C629.394 52.4587 638.69 49.788 648.153 49.9582C657.205 49.7422 666.114 52.2458 673.726 57.1448C680.882 61.8404 686.115 68.9424 688.476 77.1619L685.735 78.7516V52.9307H713.898V168.415H685.735V142.34L688.476 143.281C686.142 151.444 680.895 158.472 673.726 163.034C666.078 167.798 657.201 170.221 648.191 170.004V170.004ZM655.98 148.05C660.162 148.265 664.335 147.487 668.157 145.778C671.979 144.069 675.34 141.479 677.964 138.22C683.648 130.073 686.388 120.237 685.735 110.329C686.408 100.317 683.669 90.3708 677.964 82.1098C675.331 78.8744 671.963 76.314 668.139 74.6418C664.315 72.9696 660.146 72.234 655.98 72.4963C651.71 72.2859 647.45 73.0873 643.549 74.8349C639.648 76.5825 636.217 79.2268 633.535 82.5519C627.715 90.8185 624.888 100.818 625.519 110.903C624.887 120.74 627.723 130.488 633.535 138.455C636.291 141.665 639.747 144.201 643.638 145.867C647.529 147.534 651.752 148.287 655.98 148.068V148.05Z" fill="black"/>
<path d="M797.256 169.957C786.389 170.245 775.628 167.765 765.985 162.752C757.343 158.088 750.321 150.914 745.847 142.18C741.183 132.243 738.792 121.394 738.849 110.419C738.906 99.4448 741.409 88.6206 746.177 78.7328C750.899 69.7674 758.14 62.3751 767.012 57.4646C776.715 52.2744 787.599 49.6818 798.603 49.9393C806.656 49.9164 814.658 51.2096 822.292 53.7678C829.29 55.9565 835.734 59.6234 841.187 64.5195L832.936 84.6307C828.274 80.8004 823.018 77.7536 817.376 75.6098C812.108 73.5995 806.521 72.5543 800.883 72.5244C796.44 72.307 792.002 73.05 787.873 74.7026C783.744 76.3553 780.021 78.8787 776.958 82.1003C771.246 90.3213 768.176 100.084 768.156 110.091C768.135 120.097 771.166 129.872 776.845 138.116C779.949 141.378 783.728 143.925 787.919 145.579C792.109 147.232 796.611 147.954 801.109 147.692C806.674 147.657 812.186 146.612 817.376 144.607C823.059 142.444 828.324 139.312 832.936 135.351L841.187 155.462C835.58 160.351 828.985 163.977 821.85 166.091C813.903 168.647 805.605 169.951 797.256 169.957Z" fill="black"/>
<path d="M905.293 170.005C895.839 170.192 886.526 167.693 878.439 162.8C870.563 157.866 864.334 150.705 860.543 142.228C856.13 132.346 853.968 121.609 854.213 110.791C853.946 99.8229 856.107 88.931 860.543 78.8936C864.44 70.2752 870.663 62.9107 878.515 57.6254C886.44 52.4595 895.736 49.7888 905.199 49.9591C914.264 49.7355 923.187 52.2394 930.809 57.1457C937.965 61.8413 943.198 68.9433 945.559 77.1628L942.818 78.7525V52.9316H970.981V168.416H942.856V142.341L945.597 143.281C943.263 151.445 938.016 158.472 930.847 163.035C923.194 167.802 914.31 170.226 905.293 170.005ZM913.082 148.05C917.262 148.27 921.434 147.493 925.253 145.784C929.073 144.075 932.43 141.482 935.048 138.221C940.14 129.743 942.83 120.042 942.83 110.156C942.83 100.27 940.14 90.5697 935.048 82.0918C932.416 78.8598 929.051 76.3014 925.23 74.6294C921.41 72.9574 917.245 72.2199 913.082 72.4784C908.811 72.2619 904.55 73.0605 900.648 74.8085C896.746 76.5566 893.315 79.2043 890.637 82.534C884.846 90.7646 882.02 100.712 882.621 110.754C881.989 120.59 884.825 130.338 890.637 138.305C893.369 141.552 896.818 144.121 900.713 145.812C904.607 147.503 908.841 148.269 913.082 148.05V148.05Z" fill="black"/>
<path d="M343.908 300.907V214.988H350.068L386.077 296.655H382.103L417.744 214.969H424.036V300.888H417.019V223.858L420.532 224.225L386.755 300.916H381.208L346.894 224.037L350.728 223.811L350.841 300.945L343.908 300.907Z" fill="black"/>
<path d="M476.331 300.83H468.484L505.954 214.91H512.726L550.053 300.83H542.377L507.602 219.933H510.974L476.331 300.83ZM484.007 277.84L486.409 271.331H532.214L534.747 277.84H484.007Z" fill="black"/>
<path d="M594.634 300.83V214.948H627.6C635.062 214.472 642.456 216.608 648.511 220.987C651.007 223.136 652.971 225.833 654.249 228.867C655.527 231.901 656.084 235.189 655.877 238.474C656.043 241.71 655.46 244.94 654.172 247.914C652.885 250.888 650.928 253.526 648.454 255.622C642.443 260.056 635.06 262.234 627.6 261.774L636.078 260.222C638.975 260.149 641.814 261.039 644.15 262.752C646.745 264.936 648.639 267.834 649.594 271.086L660.586 300.896H652.74L642.228 272.29C641.272 268.992 639.115 266.17 636.181 264.38C632.946 262.985 629.435 262.342 625.915 262.498H601.745V300.811L594.634 300.83ZM602 256.055H627.262C632.911 256.481 638.529 254.898 643.123 251.587C644.938 249.93 646.355 247.885 647.269 245.605C648.182 243.324 648.568 240.868 648.398 238.418C648.579 236.019 648.205 233.611 647.303 231.381C646.401 229.151 644.997 227.159 643.198 225.559C638.536 222.346 632.908 220.838 627.262 221.288H602V256.055Z" fill="black"/>
<path d="M707.964 300.833V214.951H715.329V300.833H707.964ZM761.652 300.833L712.579 257.271L759.345 214.941H769.244L719.832 259.717L720.077 254.411L771.881 300.87L761.652 300.833Z" fill="black"/>
<path d="M812.948 300.831V214.949H865.883V221.346H820.286V254.043H863.425V260.552H820.286V294.416H865.846V300.812L812.948 300.831Z" fill="black"/>
<path d="M932.711 300.83V221.419H901.883V214.91H970.944V221.419H940.19V300.83H932.711Z" fill="black"/>
</svg>
